<mxfile host="app.diagrams.net" agent="Mozilla/5.0 (Windows NT 10.0; Win64; x64) AppleWebKit/537.36 (KHTML, like Gecko) Chrome/136.0.0.0 Safari/537.36 Edg/136.0.0.0" version="27.1.1">
  <diagram name="Page-1" id="e7e014a7-5840-1c2e-5031-d8a46d1fe8dd">
    <mxGraphModel dx="1733" dy="893" grid="1" gridSize="10" guides="1" tooltips="1" connect="1" arrows="1" fold="1" page="1" pageScale="1" pageWidth="1169" pageHeight="826" background="none" math="0" shadow="0">
      <root>
        <mxCell id="0" />
        <mxCell id="1" parent="0" />
        <mxCell id="2" value="User" style="swimlane;whiteSpace=wrap" parent="1" vertex="1">
          <mxGeometry x="164.5" y="128" width="405" height="762" as="geometry" />
        </mxCell>
        <mxCell id="1y1yetbcXjhP6Hdd2NE7-49" style="edgeStyle=orthogonalEdgeStyle;rounded=0;orthogonalLoop=1;jettySize=auto;html=1;" parent="2" source="5" target="pE66FIL00ajC1GfDvdWp-18" edge="1">
          <mxGeometry relative="1" as="geometry">
            <mxPoint x="165" y="110" as="targetPoint" />
          </mxGeometry>
        </mxCell>
        <mxCell id="5" value="" style="ellipse;shape=startState;fillColor=#000000;strokeColor=#ff0000;" parent="2" vertex="1">
          <mxGeometry x="150" y="40" width="30" height="30" as="geometry" />
        </mxCell>
        <mxCell id="1y1yetbcXjhP6Hdd2NE7-53" style="edgeStyle=orthogonalEdgeStyle;rounded=0;orthogonalLoop=1;jettySize=auto;html=1;entryX=0.5;entryY=0;entryDx=0;entryDy=0;exitX=0.5;exitY=1;exitDx=0;exitDy=0;" parent="2" source="pE66FIL00ajC1GfDvdWp-20" edge="1">
          <mxGeometry relative="1" as="geometry">
            <mxPoint x="165" y="260" as="sourcePoint" />
            <mxPoint x="165" y="372" as="targetPoint" />
          </mxGeometry>
        </mxCell>
        <mxCell id="1y1yetbcXjhP6Hdd2NE7-63" value="" style="edgeStyle=orthogonalEdgeStyle;rounded=0;orthogonalLoop=1;jettySize=auto;html=1;exitX=0.5;exitY=1;exitDx=0;exitDy=0;entryX=0.5;entryY=0;entryDx=0;entryDy=0;" parent="2" source="pE66FIL00ajC1GfDvdWp-22" target="pE66FIL00ajC1GfDvdWp-23" edge="1">
          <mxGeometry relative="1" as="geometry">
            <mxPoint x="165" y="440" as="sourcePoint" />
            <mxPoint x="165" y="492" as="targetPoint" />
          </mxGeometry>
        </mxCell>
        <mxCell id="pE66FIL00ajC1GfDvdWp-18" value="&lt;span style=&quot;text-wrap-mode: nowrap;&quot;&gt;Bấm chọn phần cài đặt&lt;/span&gt;" style="rounded=1;whiteSpace=wrap;html=1;" vertex="1" parent="2">
          <mxGeometry x="87.5" y="112" width="155" height="68" as="geometry" />
        </mxCell>
        <mxCell id="pE66FIL00ajC1GfDvdWp-20" value="&lt;span style=&quot;text-wrap-mode: nowrap;&quot;&gt;Chọn phần thông tin cần chỉnh sửa&lt;/span&gt;" style="rounded=1;whiteSpace=wrap;html=1;" vertex="1" parent="2">
          <mxGeometry x="45" y="222" width="240" height="70" as="geometry" />
        </mxCell>
        <mxCell id="pE66FIL00ajC1GfDvdWp-22" value="&lt;span style=&quot;text-wrap-mode: nowrap;&quot;&gt;Sửa cài đặt&lt;/span&gt;" style="rounded=1;whiteSpace=wrap;html=1;" vertex="1" parent="2">
          <mxGeometry x="105" y="372" width="120" height="60" as="geometry" />
        </mxCell>
        <mxCell id="pE66FIL00ajC1GfDvdWp-23" value="&lt;span style=&quot;text-wrap-mode: nowrap;&quot;&gt;Nhấn nút lưu&lt;/span&gt;" style="rounded=1;whiteSpace=wrap;html=1;" vertex="1" parent="2">
          <mxGeometry x="105" y="502" width="120" height="60" as="geometry" />
        </mxCell>
        <mxCell id="3" value="System" style="swimlane;whiteSpace=wrap;startSize=23;" parent="1" vertex="1">
          <mxGeometry x="569.5" y="128" width="320" height="764" as="geometry" />
        </mxCell>
        <mxCell id="1y1yetbcXjhP6Hdd2NE7-66" value="" style="edgeStyle=orthogonalEdgeStyle;rounded=0;orthogonalLoop=1;jettySize=auto;html=1;entryX=0.5;entryY=0;entryDx=0;entryDy=0;" parent="3" target="pE66FIL00ajC1GfDvdWp-26" edge="1">
          <mxGeometry relative="1" as="geometry">
            <mxPoint x="166.70000000000005" y="562" as="sourcePoint" />
            <mxPoint x="166.5" y="632" as="targetPoint" />
          </mxGeometry>
        </mxCell>
        <mxCell id="1y1yetbcXjhP6Hdd2NE7-70" style="edgeStyle=orthogonalEdgeStyle;rounded=0;orthogonalLoop=1;jettySize=auto;html=1;entryX=0;entryY=0.5;entryDx=0;entryDy=0;exitX=1;exitY=0.25;exitDx=0;exitDy=0;" parent="3" source="pE66FIL00ajC1GfDvdWp-26" target="1y1yetbcXjhP6Hdd2NE7-69" edge="1">
          <mxGeometry relative="1" as="geometry">
            <mxPoint x="226.6300000000001" y="659" as="sourcePoint" />
          </mxGeometry>
        </mxCell>
        <mxCell id="1y1yetbcXjhP6Hdd2NE7-69" value="" style="ellipse;html=1;shape=endState;fillColor=#000000;strokeColor=#ff0000;" parent="3" vertex="1">
          <mxGeometry x="282.75" y="644" width="30" height="30" as="geometry" />
        </mxCell>
        <mxCell id="pE66FIL00ajC1GfDvdWp-19" value="&lt;span style=&quot;text-wrap-mode: nowrap;&quot;&gt;chuyển người dùng sang giao diện chỉnh sửa hồ sơ&lt;/span&gt;" style="rounded=1;whiteSpace=wrap;html=1;" vertex="1" parent="3">
          <mxGeometry x="20.5" y="102" width="292.25" height="78" as="geometry" />
        </mxCell>
        <mxCell id="pE66FIL00ajC1GfDvdWp-25" value="&lt;span style=&quot;text-wrap-mode: nowrap;&quot;&gt;Cập nhật lại cơ sở dữ liệu hệ thống&lt;/span&gt;" style="rounded=1;whiteSpace=wrap;html=1;" vertex="1" parent="3">
          <mxGeometry x="27.75" y="492" width="255" height="68" as="geometry" />
        </mxCell>
        <mxCell id="pE66FIL00ajC1GfDvdWp-26" value="Thông báo lên màn hình lưu cài đặt thành công" style="rounded=1;whiteSpace=wrap;html=1;" vertex="1" parent="3">
          <mxGeometry x="106.63" y="638" width="120" height="60" as="geometry" />
        </mxCell>
        <mxCell id="1y1yetbcXjhP6Hdd2NE7-41" value="&lt;span style=&quot;font-size: 24px;&quot;&gt;Activity cài đặt&lt;/span&gt;" style="text;html=1;align=center;verticalAlign=middle;resizable=0;points=[];autosize=1;strokeColor=none;fillColor=none;" parent="1" vertex="1">
          <mxGeometry x="430" y="83" width="180" height="40" as="geometry" />
        </mxCell>
        <mxCell id="1y1yetbcXjhP6Hdd2NE7-52" style="edgeStyle=orthogonalEdgeStyle;rounded=0;orthogonalLoop=1;jettySize=auto;html=1;entryX=1;entryY=0.5;entryDx=0;entryDy=0;exitX=0.25;exitY=1;exitDx=0;exitDy=0;" parent="1" source="pE66FIL00ajC1GfDvdWp-19" target="pE66FIL00ajC1GfDvdWp-20" edge="1">
          <mxGeometry relative="1" as="geometry">
            <Array as="points">
              <mxPoint x="663" y="385" />
            </Array>
            <mxPoint x="640" y="288" as="sourcePoint" />
            <mxPoint x="437" y="337" as="targetPoint" />
          </mxGeometry>
        </mxCell>
        <mxCell id="1y1yetbcXjhP6Hdd2NE7-60" style="edgeStyle=orthogonalEdgeStyle;rounded=0;orthogonalLoop=1;jettySize=auto;html=1;entryX=0;entryY=0.5;entryDx=0;entryDy=0;exitX=1;exitY=0.41;exitDx=0;exitDy=0;exitPerimeter=0;" parent="1" source="pE66FIL00ajC1GfDvdWp-18" target="pE66FIL00ajC1GfDvdWp-19" edge="1">
          <mxGeometry relative="1" as="geometry">
            <mxPoint x="440" y="268" as="sourcePoint" />
            <mxPoint x="591.095" y="268.452" as="targetPoint" />
          </mxGeometry>
        </mxCell>
        <mxCell id="pE66FIL00ajC1GfDvdWp-24" style="edgeStyle=orthogonalEdgeStyle;rounded=0;orthogonalLoop=1;jettySize=auto;html=1;" edge="1" parent="1" source="pE66FIL00ajC1GfDvdWp-23">
          <mxGeometry relative="1" as="geometry">
            <mxPoint x="600" y="656" as="targetPoint" />
            <Array as="points">
              <mxPoint x="497" y="660" />
              <mxPoint x="497" y="657" />
            </Array>
          </mxGeometry>
        </mxCell>
      </root>
    </mxGraphModel>
  </diagram>
</mxfile>
